# xmcd
#
# Track frame offsets: 
#        150
#        13046
#        26126
#        39103
#        53013
#        66883
#        79233
#        93336
#        107111
#        119206
#        130298
#        142841
#        154113
#        166271
#        179136
#        190930
#        204355
#        218166
#        230821
#        244286
#
# Disc length: 3440 seconds
#
# Revision: 0
# Processed by: cddbd v1.5.1PL0 Copyright (c) Steve Scherf et al.
# Submitted via: ExactAudioCopy v0.95a5
#
DISCID=200d6e14
DTITLE=Billie Holiday - The Incomparable
DYEAR=2002
DGENRE=Blues
TTITLE0=What A Little Moonlight Can Do
TTITLE1=Miss Brown to You
TTITLE2=I'm Painting the Town Red
TTITLE3=Eeny Meeny Miney Mo
TTITLE4=These 'n' That 'n' Those
TTITLE5=You Let Me Down
TTITLE6=These Foolish Things
TTITLE7=I Cried for You
TTITLE8=Did I Remember?
TTITLE9=No Regrets
TTITLE10=Summertime
TTITLE11=Billie's Blues
TTITLE12=A Fine Romance
TTITLE13=I Can't Pretend
TTITLE14=One, Two, Button Your Shoe
TTITLE15=Easy to Love
TTITLE16=With Thee I Swing
TTITLE17=The Way You Look Tonight
TTITLE18=Who Loves You?
TTITLE19=Pennies From Heaven
EXTD=
EXTT0=
EXTT1=
EXTT2=
EXTT3=
EXTT4=
EXTT5=
EXTT6=
EXTT7=
EXTT8=
EXTT9=
EXTT10=
EXTT11=
EXTT12=
EXTT13=
EXTT14=
EXTT15=
EXTT16=
EXTT17=
EXTT18=
EXTT19=
PLAYORDER=
